<svg viewBox="0 0 76 75" fill="none" xmlns="http://www.w3.org/2000/svg">
    <path fill-rule="evenodd" clip-rule="evenodd"
        d="M11 0C5.47715 0 1 4.47715 1 10V65C1 70.5229 5.47715 75 11 75H66C71.5229 75 76 70.5229 76 65V10C76 4.47715 71.5229 0 66 0H11ZM50.875 37.5C50.875 39.37 50.71 41.185 50.49 43H59.785C60.225 41.24 60.5 39.3975 60.5 37.5C60.5 35.6025 60.225 33.76 59.785 32H50.49C50.71 33.815 50.875 35.63 50.875 37.5ZM49.4175 48.5C48.5375 51.9375 47.2725 55.2375 45.6225 58.29C50.6388 56.563 54.8657 53.0878 57.53 48.5H49.4175ZM32.065 43H44.935C45.1825 41.185 45.375 39.37 45.375 37.5C45.375 35.63 45.1825 33.7875 44.935 32H32.065C31.79 33.7875 31.625 35.63 31.625 37.5C31.625 39.37 31.79 41.185 32.065 43ZM33.2475 48.5C34.375 52.4325 36.2175 56.09 38.5 59.39C40.7825 56.09 42.625 52.4325 43.7525 48.5H33.2475ZM19.47 26.5H27.5C28.4625 23.0625 29.7 19.7625 31.35 16.71C26.3307 18.4191 22.1069 21.8998 19.47 26.5ZM27.5 48.5H19.47C22.1233 53.0862 26.3412 56.5621 31.35 58.29C29.7 55.2375 28.4625 51.9375 27.5 48.5ZM16.5 37.5C16.5 39.3975 16.775 41.24 17.215 43H26.51C26.29 41.185 26.125 39.37 26.125 37.5C26.125 35.63 26.29 33.815 26.51 32H17.215C16.775 33.76 16.5 35.6025 16.5 37.5ZM43.7525 26.5C42.625 22.5675 40.7825 18.8825 38.5 15.5825C36.2175 18.8825 34.375 22.5675 33.2475 26.5H43.7525ZM49.4175 26.5H57.53C54.89 21.935 50.6825 18.4425 45.6225 16.71C47.2823 19.8062 48.5568 23.094 49.4175 26.5ZM11 37.5C11 22.375 23.2925 10 38.5 10C42.1114 10 45.6873 10.7113 49.0238 12.0933C52.3602 13.4753 55.3918 15.501 57.9454 18.0546C60.499 20.6082 62.5247 23.6398 63.9067 26.9762C65.2887 30.3127 66 33.8886 66 37.5C66 44.7935 63.1027 51.7882 57.9454 56.9454C52.7882 62.1027 45.7935 65 38.5 65C34.8886 65 31.3127 64.2887 27.9762 62.9067C24.6398 61.5247 21.6082 59.499 19.0546 56.9454C13.8973 51.7882 11 44.7935 11 37.5Z"
        fill="#434343" />
</svg>