<svg width="75" height="75" viewBox="0 0 75 75" fill="none" xmlns="http://www.w3.org/2000/svg">
<path fill-rule="evenodd" clip-rule="evenodd" d="M10 0C4.47715 0 0 4.47715 0 10V65C0 70.5229 4.47715 75 10 75H65C70.5229 75 75 70.5229 75 65V10C75 4.47715 70.5229 0 65 0H10ZM53.5154 36.5197C53.6656 36.838 53.7435 37.1855 53.7435 37.5375C53.7435 37.8894 53.6656 38.237 53.5154 38.5553C53.3651 38.8736 53.1463 39.1547 52.8746 39.3784L25.1586 62.1984L25.1578 62.1991C24.8091 62.4864 24.386 62.6688 23.9378 62.725C23.4895 62.7812 23.0345 62.7089 22.6257 62.5165C22.2169 62.3241 21.8712 62.0195 21.6289 61.6383C21.3881 61.2595 21.2577 60.8136 21.2566 60.3601L21.2566 60.3583L21.2566 14.7128V14.7121C21.2565 14.2599 21.3849 13.817 21.6269 13.4351C21.869 13.0531 22.2146 12.7478 22.6236 12.5549C23.0325 12.3619 23.4879 12.2892 23.9366 12.3452C24.3853 12.4012 24.8088 12.5837 25.1578 12.8712L25.1584 12.8718L52.8744 35.6965L52.8746 35.6966C53.1463 35.9203 53.3651 36.2014 53.5154 36.5197ZM58.3268 37.5375C58.3268 36.5091 58.0992 35.4934 57.6602 34.5633C57.2213 33.6334 56.5819 32.8121 55.7881 32.1584L55.7879 32.1583L28.0728 9.33434L28.0721 9.33378C27.0526 8.49374 25.8152 7.96082 24.5044 7.79716C23.1932 7.63348 21.8626 7.84597 20.6676 8.40985C19.4726 8.97373 18.4626 9.86576 17.7554 10.9819C17.0483 12.0978 16.673 13.3918 16.6733 14.7128V14.7135L16.6733 60.3621L16.6733 60.366C16.6755 61.6838 17.0515 62.9812 17.761 64.0972C18.4693 65.2113 19.4794 66.1012 20.6739 66.6634C21.8684 67.2256 23.1979 67.4369 24.5078 67.2727C25.8177 67.1085 27.054 66.5756 28.0728 65.736L55.7879 42.9167C56.5818 42.263 57.2212 41.4417 57.6602 40.5116C58.0992 39.5816 58.3268 38.5659 58.3268 37.5375Z" fill="#434343"/>
</svg>
