<svg viewBox="0 0 75 75" fill="none" xmlns="http://www.w3.org/2000/svg">
<path d="M0 8.33333C0 6.1232 0.877973 4.00358 2.44078 2.44078C4.00358 0.877973 6.1232 0 8.33333 0H66.6667C68.8768 0 70.9964 0.877973 72.5592 2.44078C74.122 4.00358 75 6.1232 75 8.33333V66.6667C75 68.8768 74.122 70.9964 72.5592 72.5592C70.9964 74.122 68.8768 75 66.6667 75H8.33333C6.1232 75 4.00358 74.122 2.44078 72.5592C0.877973 70.9964 0 68.8768 0 66.6667V8.33333ZM12.5 12.5V62.5H29.1667V54.1667H20.8333V20.8333H29.1667V12.5H12.5ZM54.1667 54.1667H45.8333V62.5H62.5V12.5H45.8333V20.8333H54.1667V54.1667Z" fill="#434343"/>
</svg>
