<svg viewBox="0 0 75 75" fill="none" xmlns="http://www.w3.org/2000/svg">
<path fill-rule="evenodd" clip-rule="evenodd" d="M10 0C4.47715 0 0 4.47715 0 10V65C0 70.5229 4.47715 75 10 75H65C70.5229 75 75 70.5229 75 65V10C75 4.47715 70.5229 0 65 0H10ZM32.7639 40.4028L23.4444 49.7222L19.1667 45.4444L32.7639 31.7708L38.875 37.8819L45.3681 31.3889H40.5556V25.2778H55.8333V40.5556H49.7222V35.7431L38.875 46.5139L32.7639 40.4028ZM10 10V65H65V10H10ZM58.8889 58.8889H16.1111V16.1111H58.8889V58.8889Z" fill="#434343"/>
</svg>
