<svg viewBox="0 0 75 75" fill="none" xmlns="http://www.w3.org/2000/svg">
<path fill-rule="evenodd" clip-rule="evenodd" d="M10 0C4.47715 0 0 4.47715 0 10V65C0 70.5229 4.47715 75 10 75H65C70.5229 75 75 70.5229 75 65V10C75 4.47715 70.5229 0 65 0H10ZM60.1426 31.5455C60.1426 21.0182 51.6335 12.4545 41.0517 12.4545C36.1457 12.4508 31.4264 14.335 27.8721 17.7167C24.3178 21.0983 22.2011 25.7181 21.9608 30.6182L16.7244 37.5182C16.0699 38.3636 16.7244 39.7273 17.8699 39.7273H21.9608V47.9091C21.9608 50.9364 24.3881 53.3636 27.4153 53.3636H30.1426V61.5455H49.2335V48.7545C55.6972 45.7 60.1426 39.1818 60.1426 31.5455ZM16.6699 28.5455C18.1699 16.3273 28.5335 7 41.0517 7C54.579 7 65.5972 17.9909 65.5972 31.5455C65.5972 39.8909 61.5063 47.4455 54.6881 52V67H24.6881V58.4636C19.9972 57.2364 16.5063 52.9545 16.5063 47.9091V45.0182C14.4881 44.6091 12.7426 43.3 11.7608 41.4182C10.5881 39.1545 10.779 36.4273 12.279 34.3545L12.3335 34.2727H12.4153L16.6699 28.5455ZM47.5153 31.0273L52.8608 29.6364C54.1972 29.3091 54.9608 27.9455 54.6063 26.6636C54.2517 25.3273 52.9153 24.5636 51.6063 24.9182L46.2335 26.3636L47.679 20.9909C48.0335 19.6818 47.2699 18.3455 45.9335 17.9909C44.6517 17.6364 43.2881 18.4 42.9608 19.7364L41.5699 25.0818L37.5881 21.1545C37.1195 20.7442 36.5124 20.5274 35.8899 20.5481C35.2673 20.5687 34.676 20.8252 34.2355 21.2656C33.7951 21.7061 33.5386 22.2975 33.518 22.92C33.4973 23.5425 33.7141 24.1496 34.1244 24.6182L38.0517 28.5727L32.7063 29.9909C31.3972 30.3182 30.6335 31.6818 30.9608 32.9091C31.0404 33.2266 31.182 33.5253 31.3774 33.7879C31.5729 34.0505 31.8184 34.2718 32.0998 34.4391C32.3812 34.6064 32.6929 34.7164 33.017 34.7628C33.341 34.8091 33.6711 34.7909 33.9881 34.7091L39.3335 33.2636L37.8881 38.6091C37.8063 38.9261 37.7881 39.2561 37.8344 39.5802C37.8807 39.9043 37.9907 40.216 38.158 40.4974C38.3253 40.7787 38.5467 41.0242 38.8093 41.2197C39.0718 41.4152 39.3705 41.5568 39.6881 41.6364C40.9426 41.9636 42.279 41.2273 42.6063 39.8909L44.0244 34.5455L47.979 38.4727C48.9063 39.4273 50.4881 39.4273 51.4426 38.4727C52.3972 37.5182 52.3972 35.9364 51.4426 35.0091L47.5153 31.0273Z" fill="#434343"/>
</svg>
