<svg viewBox="0 0 75 75" fill="none" xmlns="http://www.w3.org/2000/svg">
<path fill-rule="evenodd" clip-rule="evenodd" d="M0 10C0 4.47715 4.47715 0 10 0H65C70.5229 0 75 4.47715 75 10V65C75 70.5229 70.5229 75 65 75H10C4.47715 75 0 70.5229 0 65V10ZM24.4145 31.8835V43.8665C24.4145 44.458 24.5895 45.0362 24.9176 45.5283L30.6213 54.0839L33.4912 65.5637C33.8925 67.1688 35.519 68.1448 37.1242 67.7435C38.7293 67.3422 39.7052 65.7157 39.3039 64.1105L36.3082 52.1273C36.2249 51.7942 36.0849 51.4779 35.8945 51.1922L30.406 42.9595V31.4895L34.7358 34.3761C35.0885 34.6112 35.487 34.7688 35.9051 34.8385L44.8924 36.3364C46.5245 36.6084 48.068 35.5059 48.34 33.8738C48.612 32.2418 47.5095 30.6983 45.8775 30.4263L37.5244 29.0341L29.1095 23.4242C28.6267 23.091 28.0413 22.896 27.4103 22.896C26.7222 22.896 26.0883 23.1279 25.5825 23.5179L13.6297 32.4826C12.5981 33.2563 12.1774 34.6033 12.5851 35.8266L15.5809 44.814C16.1041 46.3836 17.8007 47.2319 19.3703 46.7087C20.9399 46.1855 21.7882 44.4889 21.265 42.9193L18.952 35.9803L24.4145 31.8835ZM27.4103 7.91705C25.8212 7.91705 24.2972 8.54831 23.1736 9.67195C22.05 10.7956 21.4187 12.3196 21.4187 13.9086C21.4187 15.4977 22.05 17.0217 23.1736 18.1453C24.2972 19.269 25.8212 19.9002 27.4103 19.9002C28.9994 19.9002 30.5233 19.269 31.647 18.1453C32.7706 17.0217 33.4019 15.4977 33.4019 13.9086C33.4019 12.3196 32.7706 10.7956 31.647 9.67195C30.5233 8.54831 28.9994 7.91705 27.4103 7.91705ZM54.811 38.3137C55.0919 38.0328 55.4729 37.875 55.8702 37.875C56.2674 37.875 56.6484 38.0328 56.9293 38.3137C57.2102 38.5947 57.3681 38.9757 57.3681 39.3729V40.8708C57.3681 42.5254 58.7093 43.8666 60.3638 43.8666C62.0184 43.8666 63.3596 42.5254 63.3596 40.8708V39.3729C63.3596 37.3866 62.5706 35.4816 61.166 34.0771C59.7615 32.6725 57.8565 31.8834 55.8702 31.8834C53.8838 31.8834 51.9789 32.6725 50.5743 34.0771C49.1698 35.4816 48.3807 37.3866 48.3807 39.3729V64.8372C48.3807 66.4917 49.722 67.833 51.3765 67.833C53.031 67.833 54.3723 66.4917 54.3723 64.8372V39.3729C54.3723 38.9757 54.5301 38.5947 54.811 38.3137ZM27.094 54.1938C27.834 52.7139 27.2341 50.9144 25.7543 50.1745C24.2744 49.4346 22.4749 50.0344 21.735 51.5143L15.7434 63.4975C15.0035 64.9773 15.6033 66.7768 17.0832 67.5167C18.5631 68.2567 20.3625 67.6568 21.1025 66.177L27.094 54.1938Z" fill="#434343"/>
</svg>
