<svg viewBox="0 0 75 75" fill="none" xmlns="http://www.w3.org/2000/svg">
    <path fill-rule="evenodd" clip-rule="evenodd"
        d="M11 0C5.47715 0 1 4.47715 1 10V65C1 70.5229 5.47715 75 11 75H66C71.5229 75 76 70.5229 76 65V10C76 4.47715 71.5229 0 66 0H11ZM62.5162 53.0527C63.3161 53.3566 64.1995 53.3575 65 53.0553L64.9771 53.0576L53.9679 38.3634C53.8074 38.2202 53.679 38.0448 53.5911 37.8485C53.5031 37.6522 53.4577 37.4395 53.4577 37.2245C53.4577 37.0094 53.5031 36.7967 53.5911 36.6004C53.679 36.4042 53.8074 36.2287 53.9679 36.0855L59.7475 28.562L64.0146 22.8993C63.2627 22.6076 62.4299 22.6024 61.6744 22.8847C60.919 23.1669 60.2936 23.7169 59.9171 24.4301L51.6763 35.453L43.4813 24.3843C43.0416 23.6681 42.3685 23.1253 41.5754 22.8473C40.7824 22.5693 39.9177 22.5731 39.1271 22.858L50.1225 37.1832L38.3021 53.0415C39.0701 53.3192 39.9128 53.3076 40.6728 53.009C41.4329 52.7104 42.0581 52.1452 42.4317 51.419L51.6052 38.9432L52.7511 40.4718L60.6573 51.4053C61.0552 52.1629 61.7163 52.7488 62.5162 53.0527ZM10.9671 32.2309L10.0046 36.9861L10 36.9884C9.99955 37.8738 10.0049 38.7592 10.0161 39.6445C10.0431 39.7499 10.0729 39.8563 10.103 39.9638C10.2111 40.3495 10.3232 40.7496 10.3232 41.1707C10.5785 44.4487 11.8983 47.5534 14.0815 50.012C16.2898 52.0891 19.0986 53.4145 22.1059 53.7986C25.1132 54.1826 28.1649 53.6056 30.8244 52.1501C32.4342 51.1851 33.8044 49.8678 34.8321 48.2972C35.8597 46.7266 36.518 44.9435 36.7575 43.082C35.3229 42.642 34.5415 42.9032 34.0671 44.4295C33.7025 45.9315 32.9711 47.3198 31.9385 48.47C30.9059 49.6202 29.6042 50.4964 28.15 51.0203C19.1782 54.0201 12.1611 48.1488 12.5575 38.4253H37.0211C37.2342 32.9803 36.1502 28.1495 31.8075 24.7372C24.3917 18.9163 13.6117 22.8282 10.9671 32.2309ZM34.7111 36.3307H12.5873L12.5713 36.2986C12.8623 29.034 17.5877 24.1436 24.1923 24.2353C30.1254 24.2811 34.5736 29.2815 34.7111 36.3307Z"
        fill="#434343" />
</svg>