<svg viewBox="0 0 75 75" fill="none" xmlns="http://www.w3.org/2000/svg">
<path fill-rule="evenodd" clip-rule="evenodd" d="M10 0C4.47715 0 0 4.47715 0 10V65C0 70.5229 4.47715 75 10 75H65C70.5229 75 75 70.5229 75 65V10C75 4.47715 70.5229 0 65 0H10ZM57.8705 22.0021C57.121 24.3011 55.6631 26.3038 53.7057 27.7233C54.9944 28.5942 56.0922 29.7183 56.9322 31.0273C57.7722 32.3363 58.3367 33.8027 58.5914 35.337C58.8461 36.8714 58.7856 38.4415 58.4136 39.9517C58.0416 41.4619 57.3659 42.8805 56.4276 44.1209C55.4894 45.3614 54.3083 46.3978 52.9564 47.1668C51.6045 47.9359 50.1102 48.4215 48.5644 48.5941C47.0187 48.7667 45.454 48.6226 43.9658 48.1706C42.4776 47.7187 41.097 46.9683 39.9083 45.9653V55.5362C39.9103 57.4975 39.4085 59.4263 38.4512 61.138C37.4938 62.8497 36.1129 64.2868 34.4408 65.3117C32.7687 66.3367 30.8614 66.915 28.9017 66.9913C26.942 67.0677 24.9955 66.6394 23.2487 65.7477C21.5019 64.856 20.0134 63.5306 18.9259 61.8985C17.8383 60.2665 17.188 58.3825 17.0374 56.4271C16.8868 54.4717 17.2409 52.5103 18.0657 50.731C18.8905 48.9517 20.1585 47.414 21.7481 46.2653C20.2785 45.2069 19.0816 43.8143 18.2561 42.2024C17.4305 40.5904 17 38.8053 17 36.9943C17 35.1833 17.4305 33.3982 18.2561 31.7863C19.0816 30.1743 20.2785 28.7817 21.7481 27.7233C19.7907 26.3038 18.3328 24.3011 17.5833 22.0021C16.8338 19.7032 16.8312 17.2261 17.5758 14.9256C18.3205 12.6251 19.7741 10.6193 21.7286 9.19558C23.683 7.77188 26.0379 7.00332 28.4559 7H46.9979C49.4159 7.00332 51.7708 7.77188 53.7252 9.19558C55.6797 10.6193 57.1333 12.6251 57.878 14.9256C58.6226 17.2261 58.62 19.7032 57.8705 22.0021ZM52.003 23.4575C53.331 22.1295 54.0802 20.3304 54.0874 18.4524C54.0802 16.5743 53.331 14.7752 52.003 13.4472C50.675 12.1192 48.8759 11.37 46.9979 11.3628H39.9083V25.5419H46.9979C48.8759 25.5348 50.675 24.7855 52.003 23.4575ZM23.4508 13.4472C22.1228 14.7752 21.3736 16.5743 21.3664 18.4524C21.3736 20.3304 22.1228 22.1295 23.4508 23.4575C24.7788 24.7855 26.5779 25.5348 28.4559 25.5419H35.5455V11.3628H28.4559C26.5779 11.37 24.7788 12.1192 23.4508 13.4472ZM23.4508 31.9892C22.1228 33.3172 21.3736 35.1163 21.3664 36.9943C21.3736 38.8724 22.1228 40.6715 23.4508 41.9995C24.7788 43.3275 26.5779 44.0767 28.4559 44.0839H35.5455V29.9047H28.4559C26.5779 29.9119 24.7788 30.6612 23.4508 31.9892ZM23.4429 60.5493C24.7724 61.8789 26.5757 62.6258 28.4559 62.6258C30.334 62.6186 32.1331 61.8694 33.4611 60.5414C34.7891 59.2134 35.5383 57.4143 35.5455 55.5362V48.4467H28.4559C26.5757 48.4467 24.7724 49.1936 23.4429 50.5232C22.1133 51.8527 21.3664 53.656 21.3664 55.5362C21.3664 57.4165 22.1133 59.2198 23.4429 60.5493ZM41.9848 42.0074C43.3143 43.3369 45.1176 44.0839 46.9979 44.0839C48.8781 44.0839 50.6814 43.3369 52.0109 42.0074C53.3405 40.6778 54.0874 38.8746 54.0874 36.9943C54.0874 35.114 53.3405 33.3108 52.0109 31.9812C50.6814 30.6517 48.8781 29.9047 46.9979 29.9047C45.1176 29.9047 43.3143 30.6517 41.9848 31.9812C40.6552 33.3108 39.9083 35.114 39.9083 36.9943C39.9083 38.8746 40.6552 40.6778 41.9848 42.0074Z" fill="#434343"/>
</svg>
