<svg viewBox="0 0 75 75" fill="none" xmlns="http://www.w3.org/2000/svg">
    <path fill-rule="evenodd" clip-rule="evenodd"
        d="M10 0C4.47715 0 0 4.47715 0 10V65C0 70.5229 4.47715 75 10 75H65C70.5229 75 75 70.5229 75 65V10C75 4.47715 70.5229 0 65 0H10ZM26.9762 12.0933C30.3127 10.7113 33.8886 10 37.5 10C41.1114 10 44.6873 10.7113 48.0238 12.0933C51.3602 13.4753 54.3918 15.501 56.9454 18.0546C59.499 20.6082 61.5247 23.6398 62.9067 26.9762C64.2887 30.3127 65 33.8886 65 37.5C65 49.655 57.135 59.94 46.2175 63.625C44.815 63.8725 44.375 62.9925 44.375 62.25V54.715C44.375 52.1575 43.4675 50.48 42.4775 49.6275C48.61 48.94 55.045 46.63 55.045 36.125C55.045 33.0725 54 30.625 52.2125 28.6725C52.4875 27.985 53.45 25.125 51.9375 21.4125C51.9375 21.4125 49.6275 20.67 44.375 24.2175C42.2025 23.6125 39.8375 23.31 37.5 23.31C35.1625 23.31 32.7975 23.6125 30.625 24.2175C25.3725 20.67 23.0625 21.4125 23.0625 21.4125C21.55 25.125 22.5125 27.985 22.7875 28.6725C21 30.625 19.955 33.0725 19.955 36.125C19.955 46.6025 26.3625 48.9675 32.4675 49.655C31.6975 50.3425 30.9825 51.5525 30.735 53.34C29.1675 54 25.125 55.2375 22.7325 51.0575C22.7325 51.0575 21.275 48.4175 18.525 48.225C18.525 48.225 15.83 48.17 18.3325 49.875C18.3325 49.875 20.12 50.7275 21.385 53.9175C21.385 53.9175 23.0075 59.2525 30.625 57.6025V62.25C30.625 62.9925 30.185 63.845 28.81 63.625C17.8925 59.9675 10 49.655 10 37.5C10 30.2065 12.8973 23.2118 18.0546 18.0546C20.6082 15.501 23.6398 13.4753 26.9762 12.0933Z"
        fill="#434343" />
</svg>