<svg viewBox="0 0 75 75" fill="none" xmlns="http://www.w3.org/2000/svg">
<path fill-rule="evenodd" clip-rule="evenodd" d="M10 0C4.47715 0 0 4.47715 0 10V65C0 70.5229 4.47715 75 10 75H65C70.5229 75 75 70.5229 75 65V10C75 4.47715 70.5229 0 65 0H10ZM40.75 50.5V57H34.25V50.5H40.75ZM25.0628 7.47392C29.0059 5.84064 33.232 5 37.5 5C41.768 5 45.9941 5.84064 49.9372 7.47392C53.8803 9.10719 57.4631 11.5011 60.481 14.519C63.4989 17.5369 65.8928 21.1197 67.5261 25.0628C69.1594 29.0059 70 33.232 70 37.5C70 46.1195 66.5759 54.386 60.481 60.481C54.386 66.5759 46.1195 70 37.5 70C33.232 70 29.0059 69.1594 25.0628 67.5261C21.1197 65.8928 17.5369 63.4989 14.519 60.481C8.4241 54.386 5 46.1195 5 37.5C5 28.8805 8.4241 20.614 14.519 14.519C17.5369 11.5011 21.1197 9.10719 25.0628 7.47392ZM11.5 37.5C11.5 51.8325 23.1675 63.5 37.5 63.5C51.8325 63.5 63.5 51.8325 63.5 37.5C63.5 23.1675 51.8325 11.5 37.5 11.5C23.1675 11.5 11.5 23.1675 11.5 37.5ZM28.3076 21.8076C30.7456 19.3696 34.0522 18 37.5 18C40.9478 18 44.2544 19.3696 46.6924 21.8076C49.1304 24.2456 50.5 27.5522 50.5 31C50.5 35.1695 47.9324 37.4133 45.4325 39.598C43.0608 41.6706 40.75 43.69 40.75 47.25H34.25C34.25 41.3309 37.3119 38.9839 40.0039 36.9204C42.1158 35.3017 44 33.8575 44 31C44 29.2761 43.3152 27.6228 42.0962 26.4038C40.8772 25.1848 39.2239 24.5 37.5 24.5C35.7761 24.5 34.1228 25.1848 32.9038 26.4038C31.6848 27.6228 31 29.2761 31 31H24.5C24.5 27.5522 25.8696 24.2456 28.3076 21.8076Z" fill="#434343"/>
</svg>
