<svg viewBox="0 0 76 75" fill="none" xmlns="http://www.w3.org/2000/svg">
    <path fill-rule="evenodd" clip-rule="evenodd"
        d="M11 0C5.47715 0 1 4.47715 1 10V65C1 70.5229 5.47715 75 11 75H66C71.5229 75 76 70.5229 76 65V10C76 4.47715 71.5229 0 66 0H11ZM41.1035 14.8667C43.4167 17.2586 48.0153 22.0139 50.254 31.8969C50.4694 33.171 50.7284 35.1144 50.7055 36.9798C50.7501 40.6165 50.0309 44.222 48.5944 47.5632C47.1578 50.9044 45.036 53.9069 42.3661 56.3765C41.8023 56.9035 41.3738 57.2863 40.4182 57.9646C39.9029 60.2871 39.5128 62.6356 39.2494 65H38.1471C37.9376 62.8091 37.6855 60.6224 37.3909 58.4413L37.2305 58.3267C35.8142 57.2977 25.3825 49.2242 26.0288 35.6758C26.7209 21.1513 35.2344 14.0104 36.8913 12.7133C37.9638 11.5698 38.0073 11.1344 38.0898 10C38.5596 11.1138 39.1325 12.3971 39.7742 13.3C39.9413 13.6649 40.4237 14.1637 41.1035 14.8667ZM38.6559 31.6792C38.0257 31.6769 38.0257 50.6771 38.0257 50.6771C38.0257 52.1552 38.9057 56.0854 39.7788 56.1885C39.7788 56.1885 39.144 31.6792 38.6559 31.6792Z"
        fill="#434343" />
</svg>