<svg viewBox="0 0 75 75" fill="none" xmlns="http://www.w3.org/2000/svg">
<path fill-rule="evenodd" clip-rule="evenodd" d="M10 0C4.47715 0 0 4.47715 0 10V65C0 70.5229 4.47715 75 10 75H65C70.5229 75 75 70.5229 75 65V10C75 4.47715 70.5229 0 65 0H10ZM25.1723 22.4412C25.6075 22.5833 25.9865 22.8595 26.255 23.2303L53.3681 60.7715C54.8159 59.7844 56.1718 58.6619 57.4168 57.4168C60.0324 54.8013 62.1071 51.6963 63.5226 48.2789C64.9381 44.8616 65.6667 41.1989 65.6667 37.5C65.6667 33.8011 64.9381 30.1384 63.5226 26.7211C62.1071 23.3037 60.0324 20.1987 57.4168 17.5832C54.8013 14.9676 51.6963 12.8929 48.2789 11.4774C44.8616 10.0619 41.1989 9.33333 37.5 9.33333C30.0297 9.33333 22.8654 12.3009 17.5832 17.5832C12.3009 22.8654 9.33333 30.0297 9.33333 37.5C9.33333 44.9703 12.3009 52.1346 17.5832 57.4168C22.8654 62.6991 30.0297 65.6667 37.5 65.6667C41.1989 65.6667 44.8616 64.9381 48.2789 63.5226C48.7214 63.3393 49.1586 63.145 49.5902 62.9399L26.6667 31.1997V57H22.3333V24.5C22.3335 24.0422 22.4787 23.5963 22.7481 23.2261C23.0174 22.8559 23.3971 22.5806 23.8326 22.4396C24.2682 22.2986 24.7372 22.2992 25.1723 22.4412ZM14.519 60.481C8.4241 54.386 5 46.1195 5 37.5C5 28.8805 8.4241 20.614 14.519 14.519C20.614 8.4241 28.8805 5 37.5 5C46.1195 5 54.386 8.4241 60.481 14.519C66.5759 20.614 70 28.8805 70 37.5C70 46.1195 66.5759 54.386 60.481 60.481C54.386 66.5759 46.1195 70 37.5 70C28.8805 70 20.614 66.5759 14.519 60.481ZM48.3333 48.3333V22.3333H52.6667V48.3333H48.3333Z" fill="#434343"/>
</svg>
