<svg viewBox="0 0 75 75" fill="none" xmlns="http://www.w3.org/2000/svg">
<path fill-rule="evenodd" clip-rule="evenodd" d="M10 0C4.47715 0 0 4.47715 0 10V65C0 70.5229 4.47715 75 10 75H65C70.5229 75 75 70.5229 75 65V10C75 4.47715 70.5229 0 65 0H10ZM35.1527 66.3914C35.8966 66.7771 36.693 67 37.5495 67V66.995C38.3732 66.9955 39.1882 66.8267 39.9438 66.4991L62.7048 53.7687C64.1874 52.9397 65.0991 51.3969 65.0991 49.744V24.3333C65.0991 22.6803 64.1874 21.1375 62.7048 20.311L39.9438 7.57814C39.2029 7.19817 38.3822 7 37.5495 7C36.7169 7 35.8962 7.19817 35.1552 7.57814L12.3968 20.3135C10.9116 21.14 10 22.6828 10 24.3358V49.7465C10.0051 50.5699 10.2299 51.3771 10.6513 52.0847C11.0726 52.7922 11.6752 53.3744 12.3968 53.7712L18.3851 57.0772C21.2928 58.4546 22.3197 58.4546 23.632 58.4546C27.9097 58.4546 30.3616 55.9201 30.3616 51.5647V26.4871C30.3616 26.1015 30.021 25.826 29.6779 25.826H26.7702C26.3694 25.826 26.0839 26.1566 26.0839 26.4871V51.5673C26.0839 53.4957 23.9751 55.4242 20.6091 53.7712L14.3929 50.2975C14.165 50.1873 14.0498 49.9118 14.0498 49.6914V24.2807C14.0498 24.0603 14.165 23.7848 14.3929 23.6746L37.1513 10.9993C37.3216 10.8891 37.6071 10.8891 37.8351 10.9993L60.5935 23.6746C60.8214 23.7848 60.9341 24.0052 60.9341 24.2807V49.6914C60.9341 49.9669 60.8189 50.1873 60.5935 50.2975L37.8351 63.0304C37.6647 63.1406 37.3767 63.1406 37.1513 63.0304L31.3334 59.6668C31.1631 59.5566 30.9326 59.5015 30.7623 59.6117C29.1645 60.4958 28.8789 60.606 27.3412 61.1019C26.9981 61.2121 26.427 61.4325 27.5666 62.0386L35.1527 66.3914ZM32.5305 41.3689C32.5305 45.1182 34.5842 49.5261 44.5647 49.5261C51.8102 49.5261 55.9151 46.7711 55.9727 41.9174C55.9727 37.1789 52.6642 35.9116 45.6491 35.03C38.5764 34.1484 37.8351 33.6525 37.8351 32.0522C37.8351 30.7298 38.4612 28.9666 43.7106 28.9666C48.3865 28.9666 50.1547 29.9609 50.8409 32.9913C50.8773 33.1308 50.9581 33.2546 51.0711 33.344C51.184 33.4335 51.323 33.4837 51.4671 33.4872H54.4324C54.6052 33.4872 54.7755 33.377 54.8882 33.2668C54.9956 33.1233 55.0559 32.9501 55.061 32.7709C54.6052 27.4789 51.0112 25.0521 43.7106 25.0521C37.2064 25.0521 33.3295 27.6993 33.3295 32.1649C33.3295 36.961 37.2064 38.2809 43.4251 38.8895C50.896 39.6057 51.4671 40.6526 51.4671 42.0852C51.4671 44.5647 49.4134 45.6115 44.6223 45.6115C38.5764 45.6115 37.264 44.179 36.8057 41.2587C36.8057 40.9281 36.5227 40.7077 36.1796 40.7077H33.2142C32.816 40.7077 32.5305 41.0383 32.5305 41.3689Z" fill="#434343"/>
</svg>
