<svg viewBox="0 0 75 75" fill="none" xmlns="http://www.w3.org/2000/svg">
<path fill-rule="evenodd" clip-rule="evenodd" d="M10 0C4.47715 0 0 4.47715 0 10V65C0 70.5229 4.47715 75 10 75H65C70.5229 75 75 70.5229 75 65V10C75 4.47715 70.5229 0 65 0H10ZM43.2186 37.8382C43.2186 34.908 40.8744 32.5638 38 32.5638C35.1256 32.5638 32.7814 34.908 32.7814 37.8382C32.7814 40.6289 35.1256 43.001 38 43.001C40.8744 43.001 43.2186 40.6289 43.2186 37.8382ZM35.1256 55.4196C30.6884 59.6057 26.8372 61.2243 25.0791 60.1638C23.3209 59.1871 22.7907 55.0847 24.214 49.1127C26.427 49.5667 28.6628 49.9021 30.9116 50.1173C32.2512 51.9871 33.6744 53.7731 35.1256 55.4196ZM26.2512 42.722L27.0605 44.1452L27.8977 45.5685C27.0326 45.4289 26.1953 45.2894 25.4419 45.122C25.6372 44.3406 25.9442 43.5313 26.2512 42.722L26.2512 42.722ZM47.5721 37.8382L45.3116 42.0243C44.7588 43.001 44.1816 43.9046 43.6203 44.7835C43.3315 45.2356 43.047 45.6811 42.7721 46.1266C41.2651 46.2103 39.6744 46.2103 38 46.2103C36.3256 46.2103 34.7349 46.2103 33.2279 46.1266C32.953 45.6811 32.6685 45.2356 32.3797 44.7835C31.8184 43.9047 31.2412 43.001 30.6884 42.0243L28.4279 37.8382L30.6884 33.6522C31.2412 32.6755 31.8184 31.7718 32.3797 30.8929C32.6685 30.4409 32.953 29.9954 33.2279 29.5499C34.7349 29.4661 36.3256 29.4661 38 29.4661C39.6744 29.4661 41.2651 29.4661 42.7721 29.5499C43.047 29.9954 43.3315 30.4409 43.6203 30.893C44.1816 31.7718 44.7588 32.6755 45.3116 33.6522L47.5721 37.8382ZM37.9396 23.3407L38 23.2708L38.0605 23.3408C38.5726 23.9336 39.1095 24.5552 39.6465 25.2801H36.3535C36.8905 24.5552 37.4275 23.9336 37.9396 23.3407ZM38.0604 52.3357L38 52.4057L37.9396 52.3358C37.4275 51.743 36.8905 51.1213 36.3535 50.3964H39.6465C39.1095 51.1213 38.5725 51.7429 38.0604 52.3357ZM40.8744 20.2568C45.3116 16.0708 49.1628 14.4522 50.893 15.5127C52.6791 16.4894 53.2093 20.5917 51.786 26.5638C49.6372 26.1173 47.3767 25.7824 45.0884 25.5592C43.7488 23.6894 42.3256 21.9033 40.8744 20.2568ZM49.7488 32.9545L48.9395 31.5313L48.1023 30.108C48.9674 30.2475 49.8046 30.3871 50.5581 30.5545C50.3628 31.3359 50.0558 32.1451 49.7489 32.9544L49.7488 32.9545ZM55.8046 27.5685C57.5349 20.3685 57.0884 14.201 52.986 11.8568C48.9116 9.51265 43.3581 12.1917 38 17.2987C32.6419 12.1917 27.0884 9.51265 22.986 11.8568C18.9116 14.201 18.4651 20.3685 20.1953 27.5685C13.107 29.6615 8 33.122 8 37.8382C8 42.5545 13.107 46.015 20.1953 48.108C18.4651 55.308 18.9116 61.4754 22.986 63.8196C27.0884 66.1638 32.6419 63.4847 38 58.3778C43.3581 63.4847 48.9116 66.1638 52.986 63.8196C57.0884 61.4754 57.5349 55.308 55.8046 48.108C62.893 46.015 68 42.5545 68 37.8382C68 33.122 62.893 29.6615 55.8046 27.5685ZM54.6605 44.1452C53.9628 42.0243 53.1256 39.9313 52.1767 37.8382C53.1256 35.7452 53.9628 33.6522 54.6605 31.5313C60.5209 33.2894 63.8139 35.801 63.8139 37.8382C63.8139 39.8754 60.5209 42.3871 54.6605 44.1452ZM21.3395 31.5313C22.0372 33.6522 22.8744 35.7452 23.8233 37.8382C22.8744 39.9313 22.0372 42.0243 21.3395 44.1452C15.4791 42.3871 12.186 39.8754 12.186 37.8382C12.186 35.801 15.4791 33.2894 21.3395 31.5313ZM48.1023 45.5685L48.9395 44.1452L49.7488 42.722L49.7489 42.7221C50.0558 43.5313 50.3628 44.3406 50.5581 45.122C49.8046 45.2894 48.9674 45.4289 48.1023 45.5685ZM50.893 60.1638C49.1628 61.2243 45.3116 59.6057 40.8744 55.4196C42.3256 53.7731 43.7488 51.9871 45.0884 50.1173C47.3767 49.894 49.6372 49.5592 51.786 49.1127C53.2093 55.0847 52.6791 59.1871 50.893 60.1638ZM27.8977 30.108L27.0605 31.5313L26.2512 32.9545C25.9442 32.1452 25.6372 31.3359 25.4419 30.5545C26.1953 30.3871 27.0326 30.2475 27.8977 30.108ZM25.0791 15.5127C26.8372 14.4522 30.6884 16.0708 35.1256 20.2568C33.6744 21.9033 32.2512 23.6894 30.9116 25.5592C28.6628 25.7744 26.427 26.1097 24.214 26.5638C22.7907 20.5917 23.3209 16.4894 25.0791 15.5127Z" fill="#434343"/>
</svg>
