<svg viewBox="0 0 75 75" fill="none" xmlns="http://www.w3.org/2000/svg">
<path fill-rule="evenodd" clip-rule="evenodd" d="M10 0C4.47715 0 0 4.47715 0 10V65C0 70.5229 4.47715 75 10 75H65C70.5229 75 75 70.5229 75 65V10C75 4.47715 70.5229 0 65 0H10ZM53.3342 44.3244C53.4417 46.6094 51.7593 48.5219 49.5843 48.7094L49.5493 48.7869C45.3169 57.4017 37.9395 63.2441 28.1971 65.1166C26.6647 65.4916 25.0897 65.6016 23.5897 65.6016C17.9723 65.6016 12.8399 63.2066 10.3299 59.4617C6.95998 54.3293 5.83 43.4694 16.9223 35.5246C17.1684 36.8365 17.5195 38.1264 17.9723 39.382C16.4723 40.432 14.2249 42.5645 12.7249 45.4894C10.6674 49.5344 10.8924 53.5768 13.3624 57.3242C15.0124 59.7967 17.7073 61.3342 21.1523 61.8217C25.2722 62.3816 29.5046 61.5917 33.5121 59.4967C39.472 56.3492 43.4044 52.6043 46.0244 47.5094C45.3544 46.7994 44.8644 45.8244 44.7894 44.6269C44.7495 43.4942 45.1612 42.3921 45.9338 41.5628C46.7063 40.7334 47.7766 40.2449 48.9093 40.2045H49.0618C51.3443 40.2045 53.2167 42.0395 53.3342 44.3244ZM38.8695 28.7797C48.6093 28.7797 57.1542 32.5246 62.9541 39.3445L62.9891 39.2695C68.724 45.7494 68.909 53.3143 66.664 57.8092C64.6016 61.7817 59.1717 65.8991 51.8668 65.8991C48.6468 65.8991 45.3119 65.0366 42.0169 63.5416C43.1019 62.7916 44.6019 61.5542 45.5019 60.8092C47.0018 61.4817 49.9218 62.4191 52.9193 62.4191C57.6742 62.4191 61.2716 60.2442 63.4091 56.1267C64.7941 53.5018 64.8666 50.3543 63.5216 47.1344C61.9841 43.1995 59.2467 39.9045 55.4292 37.392C50.4468 34.0971 44.9819 32.4121 39.2095 32.4121H37.822C37.515 33.1628 36.9983 33.8093 36.3338 34.2743C35.6693 34.7393 34.885 35.0033 34.0746 35.0346H33.8896C31.6046 35.0346 29.6946 33.1596 29.6196 30.9146C29.5421 28.5572 31.3796 26.5322 33.7371 26.5322H33.8496C35.502 26.5322 36.962 27.3947 37.5945 28.7797H38.8695ZM28.4946 54.1743C26.2072 54.1743 24.2997 52.3018 24.2247 50.0543C24.1497 49.2319 24.3747 48.3719 24.7497 47.8844C20.4773 40.392 18.1923 31.0246 21.6747 21.2873C24.2247 13.9824 30.5496 9 37.4095 9C44.7144 9 52.3518 15.4424 53.2142 27.7322L49.4693 26.6072C49.2093 22.5998 45.8369 12.5199 37.747 12.6724C34.862 12.7424 30.6296 14.1324 28.3796 16.9424C25.6872 20.2373 24.1872 24.2098 23.8872 28.7797C23.3972 34.8421 24.7097 40.4645 27.8171 45.7094C28.0071 45.6369 28.2321 45.6369 28.3821 45.6369H28.5321C30.8171 45.6369 32.7646 47.5044 32.7646 49.7543C32.7914 50.3168 32.7054 50.8789 32.5116 51.4076C32.3178 51.9363 32.0202 52.4209 31.6363 52.8328C31.2524 53.2447 30.7899 53.5755 30.2761 53.8059C29.7623 54.0363 29.2076 54.1616 28.6446 54.1743H28.4946Z" fill="#434343"/>
</svg>
