<svg viewBox="0 0 75 75" fill="none" xmlns="http://www.w3.org/2000/svg">
<path fill-rule="evenodd" clip-rule="evenodd" d="M0 10C0 4.47715 4.47715 0 10 0H65C70.5229 0 75 4.47715 75 10V65C75 70.5229 70.5229 75 65 75H10C4.47715 75 0 70.5229 0 65V10ZM63.3125 8.5H12.6875C10.927 8.5 9.5 9.92702 9.5 11.6875V62.3125C9.5 64.073 10.927 65.5 12.6875 65.5H63.3125C65.073 65.5 66.5 64.073 66.5 62.3125V11.6875C66.5 9.92702 65.073 8.5 63.3125 8.5ZM63.3125 7H12.6875C10.0986 7 8 9.09859 8 11.6875V62.3125C8 64.9014 10.0986 67 12.6875 67H63.3125C65.9014 67 68 64.9014 68 62.3125V11.6875C68 9.09859 65.9014 7 63.3125 7ZM43.2777 60.4598V53.9863C44.4519 54.9709 45.7273 55.7092 47.1043 56.2014C48.481 56.6938 49.8711 56.9399 51.2748 56.9399C52.0981 56.9399 52.817 56.8656 53.431 56.7173C54.0451 56.5689 54.5581 56.3634 54.9697 56.1004C55.3813 55.8374 55.6885 55.5271 55.8908 55.1699C56.0925 54.8156 56.1972 54.4144 56.1945 54.0067C56.1945 53.4402 56.0326 52.9345 55.7087 52.4894C55.3848 52.0443 54.9427 51.633 54.3826 51.2554C53.8224 50.8778 53.1577 50.5138 52.3883 50.1632C51.5654 49.7893 50.7351 49.4319 49.898 49.0909C47.6305 48.1469 45.9402 46.9937 44.8266 45.6318C43.7129 44.2696 43.1562 42.6243 43.1562 40.6959C43.1562 39.1853 43.46 37.8873 44.0673 36.8017C44.6748 35.7161 45.5014 34.8227 46.5474 34.1212C47.5934 33.4199 48.8049 32.9041 50.1816 32.5738C51.5584 32.2434 53.0159 32.0781 54.5546 32.0781C56.0663 32.0781 57.406 32.1691 58.5734 32.3512C59.7409 32.5333 60.8173 32.8131 61.8027 33.1907V39.2392C61.3018 38.8937 60.7697 38.5958 60.2134 38.3493C59.6396 38.0929 59.0475 37.8799 58.442 37.712C57.8345 37.5433 57.2305 37.4186 56.6298 37.3377C56.0293 37.2569 55.4591 37.2163 54.9191 37.2163C54.1768 37.2163 53.5018 37.2871 52.8945 37.4287C52.287 37.5705 51.7742 37.7692 51.3559 38.0256C50.9375 38.2818 50.6134 38.5886 50.3839 38.946C50.1545 39.3034 50.0398 39.7045 50.0398 40.1495C50.0398 40.6352 50.168 41.0699 50.4245 41.4543C50.6809 41.8387 51.0453 42.2029 51.5178 42.5467C51.9901 42.8908 52.5638 43.2278 53.2386 43.5583C53.9136 43.8887 54.676 44.2291 55.5263 44.5799C56.6872 45.0653 57.7299 45.5812 58.6545 46.1273C59.5789 46.6736 60.372 47.2905 61.0332 47.9784C61.6888 48.6569 62.2047 49.4576 62.5517 50.335C62.9026 51.2184 63.0781 52.2468 63.0781 53.4201C63.0781 55.0384 62.7711 56.3971 62.157 57.4961C61.5427 58.5953 60.7093 59.4855 59.6565 60.1666C58.6039 60.8474 57.3788 61.3363 55.982 61.633C54.5851 61.9298 53.1104 62.0781 51.5584 62.0781C49.9655 62.0781 48.4505 61.9434 47.0131 61.6736C45.5757 61.4038 44.3305 60.9993 43.2777 60.4598ZM40.8125 37.877H32.488V61.6094H25.8934V37.877H17.6094V32.5469H40.8125V37.877Z" fill="#434343"/>
</svg>
